<svg height="512pt" viewBox="0 0 512 511" width="512pt" xmlns="http://www.w3.org/2000/svg"><path d="m359.816406 404.65625c-47.851562 0-86.78125-38.929688-86.78125-86.777344 0-47.851562 38.929688-86.78125 86.78125-86.78125h121.179688v-31.535156h-50.835938v-29.941406h50.835938v-43.519532h-357.863282l-.871093.28125-.089844-.28125h-122.171875v43.519532h51.929688v29.941406h-51.929688v236.574219h51.929688v29.941406h-51.929688v44.574219h480.996094v-44.574219h-50.835938v-29.941406h50.835938v-31.480469zm-45.535156-205.09375h-54.65625v-29.941406h54.65625zm87.449219 0h-54.65625v-29.941406h54.65625zm-262.351563 266.515625h-54.65625v-29.941406h54.660156v29.941406zm0-266.515625h-54.65625v-29.941406h54.660156v29.941406zm87.453125 266.515625h-54.660156v-29.941406h54.660156zm0-266.515625h-54.660156v-29.941406h54.660156zm87.449219 266.515625h-54.65625v-29.941406h54.65625zm87.449219 0h-54.65625v-29.941406h54.65625zm0 0"/><path d="m270.707031 47.148438-20.265625-46.648438-169.722656 95.605469h37.707031zm0 0"/><path d="m216.445312 96.105469h192.796876l-7.511719-59.570313zm0 0"/><path d="m302.035156 317.878906c0 31.859375 25.921875 57.777344 57.78125 57.777344h152.183594v-115.558594h-152.183594c-31.859375 0-57.78125 25.921875-57.78125 57.78125zm73.160156 0c.363282 8.082032-7.136718 14.96875-14.96875 14.96875-8.394531 0-14.609374-6.859375-14.972656-14.96875-.359375-8.085937 7.140625-14.972656 14.972656-14.972656 8.390626 0 14.605469 6.859375 14.96875 14.972656zm0 0"/></svg>